<svg id="Layer_1" data-name="Layer 1" xmlns="http://www.w3.org/2000/svg" xmlns:xlink="http://www.w3.org/1999/xlink" width="111" height="48.5" viewBox="0 0 111 48.5"><defs><style>.cls-1{fill:#2c388a;}.cls-2{fill:url(#linear-gradient);}</style><linearGradient id="linear-gradient" x1="16.2663" y1="27.1057" x2="48.3421" y2="47.1488" gradientTransform="matrix(1, 0, 0, -1, 0, 48)" gradientUnits="userSpaceOnUse"><stop offset="0.2883" stop-color="#ffc629"/><stop offset="0.289" stop-color="#ffc529"/><stop offset="0.3688" stop-color="#f69525"/><stop offset="0.4481" stop-color="#ee6d22"/><stop offset="0.5256" stop-color="#e84d1f"/><stop offset="0.6006" stop-color="#e4371d"/><stop offset="0.672" stop-color="#e12a1c"/><stop offset="0.7362" stop-color="#e1251b"/></linearGradient></defs><path class="cls-1" d="M36.1,42.2A20.6737,20.6737,0,1,1,24.4,4.5c1,0,2,.1,3,.2l1.5-2a23.1476,23.1476,0,0,0-4.6-.5,22.95,22.95,0,0,0,0,45.9,22.44,22.44,0,0,0,15.3-5.9Z"/><polygon class="cls-1" points="31.5 38.2 23.1 25.2 28.8 20.5 40.1 38.2 31.5 38.2"/><path class="cls-1" d="M43.5,38.2v-25H61.1v4.2H50.5V23H60.8v4.1H50.5V34H61.4v4.2Z"/><path class="cls-1" d="M75,38.2H65.8v-25h9c9.3,0,13,3.5,13,11.9C87.8,34.2,84.1,38.2,75,38.2Zm.4-20.7H72.8V33.9h2.8c3.3,0,4.9-2.5,4.9-8.7C80.6,19.4,79,17.5,75.4,17.5Z"/><path class="cls-1" d="M100.5,38.6c-4.3,0-8.7-1-9.5-1.5V32.6a20.9621,20.9621,0,0,0,7.7,1.7c3.3,0,5.1-.8,5.1-2.7,0-1.4-1.5-2.2-3.3-3-4.2-1.9-9.4-3.6-9.4-9.1,0-4.7,4.8-6.8,9.6-6.8a34.3065,34.3065,0,0,1,9.2,1.4v4.4a19.9807,19.9807,0,0,0-7.5-1.5c-2.5,0-4.2.6-4.2,2.2,0,1.2,1.5,2.1,3.3,2.9,3.7,1.7,9.5,3.5,9.5,8.6C111,36.5,106.4,38.6,100.5,38.6Z"/><polygon class="cls-2" points="23.1 25.2 31.2 13.2 25.8 13.2 35.5 0.3 46.1 0.3 36.6 8.6 45.7 8.6 23.1 25.2"/><rect class="cls-1" x="15" y="13.2" width="7" height="25"/></svg>